<svg xmlns="http://www.w3.org/2000/svg" fill="none" viewBox="0 0 28 28"><g clip-path="url(#logo_240424_svg__a)"><path fill="url(#logo_240424_svg__b)" fill-rule="evenodd" d="M5.52 6.228C4.22 7.84 3.094 9.605 2.3 11.285.856 14.333.596 17.337 1.392 19.92c.655 2.122 2.023 3.968 4.047 5.326q-.303-.224-.58-.463c-1.487-1.231-2.472-2.835-3.213-4.571-.686-1.548-.714-3.34-.444-4.99.18-1.112.631-2.496 1.172-3.64.388-.836.822-1.686 1.3-2.524A22 22 0 0 1 5.52 6.23zm7.889 21.555c2.045.01 4.045-.499 6.234-1.405 4.46-1.847 7.675-6.006 7.716-12.31v-.124c0-2.244-.23-3.849-.68-5.078a6.2 6.2 0 0 0-1.503-2.36 6.8 6.8 0 0 1 1.49 2.557c.429 1.297.616 2.937.564 5.133-.137 6.242-3.452 10.297-7.73 12.074-2.125.887-4.083 1.45-6.091 1.511zm3.77-26.391q-.328-.226-.667-.467c-1.01-.723-2.21-.832-3.503-.484-1.13.305-2.321.956-3.502 1.845q.285-.206.569-.392c2.37-1.55 4.791-2.1 6.477-.897q.319.204.628.395zM27.608 13.82h-.002c-.008-2.194-.238-3.796-.696-5.04-.466-1.271-1.165-2.164-2.091-2.931-.891-.74-1.995-1.362-3.294-2.096l-.133-.075c-1.36-.769-2.938-1.67-4.737-2.957-1.084-.777-2.366-.883-3.71-.522C11.604.56 10.193 1.39 8.83 2.5 6.103 4.722 3.54 8.09 2.078 11.177c-1.467 3.097-1.738 6.165-.92 8.817.816 2.653 2.72 4.878 5.578 6.288 2.426 1.196 4.568 1.738 6.662 1.75 2.093.011 4.128-.51 6.338-1.424 4.586-1.898 7.87-6.191 7.87-12.663v-.124zM3.89 9.177c1.623-2.974 3.976-5.542 6.32-7.076C12.563.56 14.86.09 16.41 1.2h.004l.003.004q.355.225.699.437-.329-.18-.67-.37c-.74-.528-1.713-.67-2.786-.5-1.077.172-2.266.661-3.457 1.412-2.38 1.5-4.785 4.06-6.322 7.281a49 49 0 0 0-1.214 2.515c-.473 1.003-.968 2.486-1.128 3.461-.235 1.437-.317 3.235.505 4.71l.112.211c.807 1.533 1.59 3.019 2.827 4.149q.215.214.45.417a11 11 0 0 1-.416-.34h-.002c-1.447-1.199-2.412-2.765-3.145-4.48-.66-1.49-.69-3.227-.426-4.85.178-1.087.618-2.447 1.153-3.576.384-.832.815-1.675 1.292-2.507zm22.544-.038a6.6 6.6 0 0 0-1.437-2.465c1.424 1.676 2.048 3.926 1.858 7.77-.262 5.74-3.32 9.479-7.056 11.248h.033l-.568.239c-2.15.904-4.132 1.522-6.172 1.605 2.078-.01 4.099-.573 6.314-1.498 4.19-1.74 7.444-5.707 7.579-11.85.052-2.181-.135-3.79-.551-5.049M10.332 2.396C7.991 3.872 5.618 6.397 4.1 9.576v.004a48 48 0 0 0-1.21 2.505c-.467.987-.952 2.449-1.108 3.398-.232 1.425-.303 3.15.477 4.548l.103.2v.004c.816 1.544 1.58 2.995 2.786 4.097h.002v.003q.119.116.241.23a9 9 0 0 1-.286-.318c-.552-.568-.978-1.237-1.384-1.945q-.19-.33-.377-.669c-.281-.504-.567-1.019-.9-1.536-.96-1.398-.766-3.204-.567-4.43.137-.84.678-2.424 1.086-3.282q.06-.141.123-.282c.322-.734.653-1.484 1.001-2.227C5.52 6.442 7.95 3.922 10.331 2.477c1.19-.722 2.373-1.178 3.417-1.342 1.036-.162 1.95-.04 2.593.416q.35.169.689.33-.349-.19-.709-.393l-.007-.003-.004-.004C15.635 1 14.734.855 13.698 1.02c-1.036.166-2.193.638-3.364 1.377zm14.482 4.448c1.366 1.612 1.981 3.79 1.794 7.59-.27 5.912-3.549 9.648-7.44 11.27l-.352.146c-2.08.851-3.994 1.406-5.964 1.446 2.045-.118 4.025-.789 6.174-1.7l.17-.071h-.002c3.602-1.577 6.88-5.138 7.282-10.829.287-3.735-.276-6.084-1.664-7.853zM4.318 9.974c1.405-3.383 3.8-5.865 6.14-7.285 1.17-.709 2.323-1.151 3.328-1.31 1.008-.16 1.851-.03 2.422.377l.008.007.01.005q.352.17.692.331l-.68-.275c-.547-.382-1.405-.484-2.402-.33-1.01.156-2.186.579-3.377 1.273-2.383 1.388-4.837 3.87-6.16 7.517q-.217.52-.429 1.039c-.202.492-.4.979-.608 1.461-.171.361-.401.961-.604 1.556-.202.593-.378 1.193-.437 1.547l-.003.017c-.082.508-.196 1.208-.156 1.942.039.742.236 1.527.789 2.19.53.684.898 1.393 1.248 2.07l.016.032c.34.663.67 1.3 1.118 1.836q.077.109.158.215l-.095-.11-.003-.004-.004-.003c-.53-.547-.945-1.195-1.351-1.899q-.184-.32-.37-.656a27 27 0 0 0-.913-1.56v-.004c-.9-1.309-.73-3.02-.528-4.25.134-.81.665-2.372 1.066-3.217v-.004q.064-.14.125-.283c.324-.735.653-1.484 1-2.223V9.97zm21.915 4.704c.28-3.65-.261-5.918-1.56-7.615 1.32 1.856 1.808 4.293 1.432 7.885-.548 5.548-3.951 8.894-7.31 10.31-2.178.931-4.18 1.665-6.258 1.803 2.058-.06 4.045-.706 6.228-1.622h-.002l.17-.073c3.59-1.505 6.899-5.01 7.302-10.688zM10.581 2.984c-2.338 1.362-4.752 3.8-6.053 7.39v.004q-.218.516-.43 1.036c-.203.495-.407.989-.614 1.471v.003c-.166.348-.393.94-.595 1.531-.203.593-.374 1.175-.426 1.508v.01c-.086.512-.194 1.19-.156 1.895.037.71.225 1.437.733 2.046v.004c.55.706.926 1.433 1.274 2.11l.01.019c.342.664.656 1.276 1.08 1.786q-.026-.048-.052-.093c-.281-.408-.489-.883-.702-1.377l-.181-.412c-.291-.645-.638-1.312-1.219-1.935-.621-.623-.827-1.394-.86-2.101-.03-.615.07-1.195.14-1.6l.028-.168c.048-.288.23-.88.433-1.461.2-.582.425-1.172.564-1.463.294-.706.562-1.433.828-2.162q.06-.168.122-.332c1.215-3.859 3.696-6.302 6.08-7.633 1.193-.666 2.362-1.054 3.339-1.203.488-.074.932-.09 1.307-.046.365.041.676.136.9.292q.36.114.706.233l-.705-.285-.013-.005-.012-.008c-.467-.335-1.253-.447-2.233-.295-.975.15-2.123.562-3.292 1.243zM24.493 7.24c1.257 1.786 1.737 4.149 1.365 7.683-.538 5.446-3.872 8.721-7.16 10.108l.047.114-.048-.114c-2.253.964-4.29 1.703-6.406 1.798 2.032-.166 3.982-.925 6.094-1.831l.17-.071c3.054-1.296 6.488-4.406 7.172-9.722.471-3.481.044-6.016-1.234-7.963zM4.74 10.773c1.194-3.794 3.63-6.19 5.966-7.494 1.169-.653 2.31-1.03 3.255-1.175a5 5 0 0 1 1.244-.046c.351.04.621.13.8.258l.017.012.018.007q.33.104.648.213a32 32 0 0 0-.661-.169c-.18-.119-.45-.19-.778-.217a5.4 5.4 0 0 0-1.235.06c-.944.14-2.106.497-3.298 1.133-2.385 1.274-4.892 3.677-6 7.747l-.01.03c-.265.83-.53 1.66-.855 2.457-.106.222-.326.802-.527 1.372-.102.288-.199.577-.274.819a5 5 0 0 0-.151.556l-.038.202c-.064.328-.161.834-.138 1.377.028.676.24 1.428.932 2.012.633.564.959 1.19 1.19 1.8.086.226.158.448.229.665q.038.117.077.233c.096.285.196.562.327.812l.015.038c-.233-.363-.412-.775-.608-1.222q-.09-.211-.19-.43c-.294-.654-.655-1.35-1.264-2.004v-.003c-.567-.567-.758-1.268-.79-1.939-.029-.585.065-1.136.134-1.543l.03-.172c.043-.263.218-.833.42-1.42.203-.583.425-1.163.555-1.44v-.004c.3-.713.569-1.447.837-2.176v-.003l.122-.331v-.005zm20.745 4.397c.459-3.38.056-5.819-1.126-7.686 1.203 2.026 1.553 4.637.993 7.97a11.9 11.9 0 0 1-7.031 9.135c-2.182.95-4.189 1.809-6.288 2.01 2.126-.123 4.165-.927 6.427-1.903l.171-.074c2.944-1.31 6.193-4.336 6.852-9.45zM10.829 3.572C8.496 4.82 6.04 7.171 4.951 11.17v.005l-.014.036c-.264.827-.532 1.668-.861 2.475v.004l-.003.003c-.1.205-.316.775-.518 1.35-.1.287-.198.572-.273.81a5 5 0 0 0-.143.52q-.016.097-.042.221c-.064.331-.152.797-.133 1.307.027.632.22 1.307.845 1.831h.004c.674.603 1.018 1.27 1.258 1.9.088.232.162.463.235.68l.074.227q.083.251.172.475c-.059-.2-.1-.416-.143-.636l-.003-.02c-.053-.27-.105-.548-.192-.832-.175-.573-.477-1.156-1.161-1.663-.763-.542-.983-1.276-1.005-1.92-.016-.497.089-.958.148-1.22q.026-.107.035-.165c.013-.082.07-.267.144-.492.076-.23.175-.513.277-.796.2-.556.414-1.125.486-1.279.318-.802.553-1.64.778-2.48 1.001-4.285 3.534-6.649 5.92-7.865a10.7 10.7 0 0 1 3.259-1.064 6.2 6.2 0 0 1 1.162-.07q.233.011.405.049a.8.8 0 0 1 .251.093q.318.05.625.112a26 26 0 0 0-.597-.15l-.023-.005-.02-.014c-.124-.09-.351-.159-.675-.187a5.3 5.3 0 0 0-1.18.056c-.915.138-2.051.484-3.219 1.107zm13.382 4.152c1.111 1.947 1.44 4.457.896 7.688a11.66 11.66 0 0 1-6.883 8.946l.047.115-.05-.114c-2.265.984-4.299 1.853-6.428 2.01 1.978-.22 3.864-1.051 5.89-1.943l.4-.175c2.436-1.054 5.929-3.692 6.889-8.544.648-3.191.371-5.875-.761-7.983M5.16 11.57c.982-4.205 3.461-6.513 5.791-7.703a10.6 10.6 0 0 1 3.182-1.04 6 6 0 0 1 1.115-.068q.22.01.362.044a.6.6 0 0 1 .189.07l.023.017.028.005q.28.045.552.097a14 14 0 0 0-.598-.061.738.738 0 0 0-.184-.046 3 3 0 0 0-.346-.022 7 7 0 0 0-1.088.083c-.878.126-2.026.416-3.218.996-2.388 1.161-4.945 3.487-5.836 7.982-.182.84-.385 1.68-.69 2.474-.043.094-.25.646-.446 1.186-.102.277-.2.555-.278.772l-.094.273c-.021.067-.04.125-.044.154q-.005.023-.023.085c-.12.406-.605 2.033.908 2.94 1.154.71 1.188 1.631 1.22 2.443q.005.15.013.297l-.043-.214-.005-.023a8 8 0 0 0-.197-.852c-.186-.611-.515-1.246-1.252-1.793h-.001c-.684-.485-.882-1.138-.901-1.728-.015-.459.077-.861.138-1.13q.028-.124.043-.207c.01-.056.057-.22.134-.452.076-.227.175-.509.275-.789.204-.566.414-1.125.479-1.26v-.004l.003-.003c.324-.817.564-1.67.79-2.514v-.009m11.885 12.702c-1.887.849-3.667 1.647-5.536 1.874 2.03-.167 3.966-1.019 6.102-1.958h.003q.184-.083.372-.164c2.387-1.034 5.806-3.615 6.745-8.365.626-3.084.373-5.657-.666-7.68 1.062 2.186 1.264 4.934.531 7.983-1.013 4.271-4.1 6.644-6.242 7.717h.033l-.538.239q-.405.18-.802.36zm-5.97-20.108c-2.329 1.131-4.828 3.398-5.703 7.808-.182.847-.39 1.703-.702 2.517v.005l-.003.005c-.031.064-.235.611-.44 1.17a55 55 0 0 0-.368 1.038l-.026.085-.008.031q-.008.046-.036.141c-.133.482-.51 1.843.804 2.628 1.164.716 1.299 1.681 1.335 2.467l.023-.168c.031-.246.051-.501.02-.755a1.57 1.57 0 0 0-.278-.73c-.168-.234-.426-.461-.824-.662-.446-.225-.733-.512-.91-.82a1.87 1.87 0 0 1-.24-.916 2.5 2.5 0 0 1 .201-1.012q.005-.012.007-.017l.81-2.175.405-.43a8 8 0 0 1-.174.516l-.813 2.178v.005l-.003.005v.004s-.005.006-.006.013q-.009.018-.022.053a2.35 2.35 0 0 0-.158.857c.004.256.058.533.208.795s.4.517.805.722c.426.216.719.466.914.738.196.273.288.561.323.846a3.3 3.3 0 0 1-.02.817c-.013.1-.026.19-.04.278-.02.148-.04.28-.05.406-.032.44.02.882.166 1.296.074.212.156.446.42.709.269.267.734.568 1.586.89 1.636.435 3.135.26 4.632-.206 1.14-.354 2.27-.875 3.455-1.421q.565-.262 1.15-.524c1.79-.799 5.264-2.92 6.47-7.205.936-3.334.603-6.508-.831-8.846-1.432-2.333-3.97-3.845-7.482-3.845h-.05l-.004-.004h-.178q-.06 0-.141.005a11.164 11.164 0 0 0-4.1.996C8.877 5.527 6.356 7.75 5.586 12.368c-.111.67-.245 1.347-.444 2.002l-.404.429c.293-.79.464-1.629.605-2.472.784-4.709 3.366-6.995 5.755-8.1a11.4 11.4 0 0 1 4.192-1.021q.182-.007.282-.007h.102v.002h.048q.249 0 .493.012-.224-.026-.455-.043l-.035-.004-.026-.018q-.002-.002-.023-.008a1 1 0 0 0-.089-.017 2.4 2.4 0 0 0-.314-.02 7 7 0 0 0-1.05.08c-.857.122-1.98.406-3.146.972zm.243 21.755c.56-.08 1.113-.212 1.662-.384 1.158-.36 2.308-.89 3.496-1.437q.562-.259 1.136-.518c1.82-.812 5.372-2.976 6.607-7.365.793-2.818.696-5.542-.212-7.764.885 2.061 1.03 4.615.347 7.451-1.07 4.518-4.518 6.87-6.607 7.785l-.542.239h.01l-.26.116c-1.957.877-3.754 1.683-5.637 1.877m-7.496-9.097-.122-.02z" clip-rule="evenodd"></path><g opacity="0.8"><path fill="url(#logo_240424_svg__c)" d="m19.346 24.733.005.273c2.488-1.211 4.909-3.49 6.084-6.949l-.233-.08c-1.138 3.343-3.458 5.558-5.856 6.756"></path><path fill="url(#logo_240424_svg__d)" d="M19.307 22.658c1.56-1.004 3.397-2.649 4.46-5.166l-.236-.08a10.6 10.6 0 0 1-2.1 3.182l-.01.011q-.111.118-.226.23-.316.311-.637.587l-.07.062-.112.092q-.084.07-.168.136l-.095.075q-.083.065-.166.127-.065.05-.13.096l-.061.044q-.227.166-.452.318l.005.286z"></path><path fill="url(#logo_240424_svg__e)" d="M26.728 18.493c-1.146 3.86-3.772 6.513-7.09 7.886q-.13.054-.26.105l.005.265.348-.141c3.386-1.402 6.061-4.11 7.23-8.037l-.233-.08z"></path><path fill="url(#logo_240424_svg__f)" d="m19.312 22.847.005.288c1.695-1.05 3.657-2.823 4.752-5.54l-.233-.08c-1.048 2.585-2.896 4.295-4.526 5.33z"></path><path fill="url(#logo_240424_svg__g)" d="m26.182 18.309-.235-.08c-1.158 3.667-3.688 6.122-6.586 7.392l.005.271.403-.17.025-.024c2.82-1.335 5.252-3.795 6.388-7.389"></path><path fill="url(#logo_240424_svg__h)" d="m24.727 17.817-.234-.08a11.63 11.63 0 0 1-5.165 6.068l.005.281c2.044-1.135 4.248-3.162 5.394-6.27z"></path><path fill="url(#logo_240424_svg__i)" d="M19.495 26.273c3.216-1.337 5.888-3.961 7.075-7.833l-.233-.08c-1.165 3.806-3.786 6.374-6.936 7.683l-.032.013.005.267z"></path><path fill="url(#logo_240424_svg__j)" d="m25.804 18.182-.234-.08c-1.148 3.508-3.576 5.842-6.217 7.076l.005.27c2.736-1.247 5.26-3.648 6.444-7.268z"></path><path fill="url(#logo_240424_svg__k)" d="m24.391 17.704-.233-.08c-1.079 2.788-3.05 4.625-4.836 5.705l.005.287c1.856-1.094 3.941-2.996 5.066-5.912z"></path><path fill="url(#logo_240424_svg__l)" d="m25.077 17.936-.234-.08a11.66 11.66 0 0 1-5.505 6.42l.005.278a11.92 11.92 0 0 0 5.735-6.618z"></path></g><g opacity="0.15"><path fill="url(#logo_240424_svg__m)" d="M3.474 16.59c.006-.04.033-.135.075-.267l-.244-.047c-.038.123-.066.22-.074.274q-.012.058-.035.165c-.06.262-.164.723-.148 1.22.021.644.242 1.378 1.005 1.92l.062.05h.387a4 4 0 0 0-.305-.252h-.001c-.684-.485-.882-1.138-.901-1.726-.015-.46.077-.863.138-1.13q.028-.125.043-.207z"></path><path fill="url(#logo_240424_svg__n)" d="m5.263 19.68-.07-.044q-.039-.022-.081-.046a2.3 2.3 0 0 1-.64-.416l-.066-.066-.046-.048-.025-.028a1.6 1.6 0 0 1-.17-.239l-.019-.038a3 3 0 0 1-.064-.133q-.014-.034-.026-.07a2 2 0 0 1-.045-.14L4 18.362a1.4 1.4 0 0 1-.03-.164v-.01c-.07-.591.17-1.113.196-1.171l.2-.537-.246-.046-.2.538s-.006.012-.007.018l-.025.062c-.02.053-.048.127-.074.22a2.6 2.6 0 0 0-.102.73c.003.29.064.61.24.917s.464.595.91.82q.162.084.296.17h.41s-.01-.01-.017-.014c-.093-.068-.181-.143-.288-.212z"></path><path fill="url(#logo_240424_svg__o)" d="M3.135 16.364c.005-.028.013-.07.025-.114l-.243-.046q-.017.07-.027.119l-.038.202c-.064.328-.16.834-.138 1.377.028.673.239 1.421.923 2.003h.358q-.088-.09-.187-.179v-.003c-.627-.524-.82-1.201-.847-1.831-.021-.509.069-.976.133-1.307q.025-.126.041-.22"></path><path fill="url(#logo_240424_svg__p)" d="m.994 15.844-.235-.045a11 11 0 0 0-.016 2.111v.003l.016.135q.048.464.137.92.008.034.014.07a9 9 0 0 0 .22.865h.254c-.388-1.266-.523-2.632-.39-4.057z"></path><path fill="url(#logo_240424_svg__q)" d="M1.782 19.902c-.497-1.24-.58-2.638-.434-3.992l-.244-.046c-.15 1.354-.075 2.765.41 4.036h.266z"></path><path fill="url(#logo_240424_svg__r)" d="M4.587 19.584c-1.314-.786-.937-2.148-.804-2.63a2 2 0 0 0 .036-.14l-.122-.02.122.02.008-.032q.01-.033.027-.084l.092-.27.01-.03-.245-.047-.093.265c-.02.067-.04.125-.044.154q-.004.022-.023.085c-.12.406-.605 2.033.908 2.939q.087.055.164.11h.401a3.3 3.3 0 0 0-.439-.324z"></path><path fill="url(#logo_240424_svg__s)" d="M2.191 19.903c-.628-1.213-.648-2.652-.488-3.925l-.244-.044c-.159 1.259-.154 2.713.453 3.97h.279"></path><path fill="url(#logo_240424_svg__t)" d="M3.421 19.8c-.566-.566-.756-1.268-.79-1.94-.027-.584.067-1.136.136-1.543q.01-.073.023-.136l-.242-.045-.023.137c-.07.406-.17.986-.14 1.6.033.683.225 1.422.794 2.032h.334l-.09-.103z"></path><path fill="url(#logo_240424_svg__u)" d="M2.617 19.903c-.786-1.183-.72-2.682-.55-3.858L1.822 16c-.165 1.146-.245 2.66.503 3.903z"></path><path fill="url(#logo_240424_svg__v)" d="M2.183 16.068c-.077.489-.164 1.117-.13 1.771.038.696.217 1.43.694 2.064h.31l-.022-.028v-.003c-.51-.61-.696-1.337-.735-2.046-.033-.625.049-1.228.126-1.713z"></path></g><path fill="url(#logo_240424_svg__w)" d="M7.966 25.384c-1.225-.492-1.545-1.027-1.695-1.458-.158-.404-.178-.895-.178-1.226.01-.13.038-.37.061-.52.076-.51.132-1.238-.186-1.793l-.125.298q.096.222.124.45c.031.253.013.508-.02.756l-.023.168c-.016-.35-.053-.736-.19-1.12l-.154.35c.074.324.087.65.099.96q.005.15.013.297l-.043-.214-.005-.023a9 9 0 0 0-.174-.769l-.161.37q.051.229.092.45l.003.02c.043.22.084.436.143.636a8 8 0 0 1-.172-.475l-.074-.227-.073-.22-.148.34q.031.093.061.185c.096.285.196.561.328.811l.014.039a7 7 0 0 1-.463-.895l-.132.303c.138.295.283.577.457.832l.053.093a6 6 0 0 1-.558-.814l-.12.279c.155.251.32.49.505.712q.077.109.158.215l-.095-.11-.004-.004-.003-.003a7 7 0 0 1-.6-.72l-.114.262c.167.22.342.431.535.628q.136.162.286.318a11 11 0 0 1-.24-.23h-.002v-.003a7 7 0 0 1-.615-.631l-.108.25q.26.294.554.563.215.215.45.418a11 11 0 0 1-.416-.34H5.01a10 10 0 0 1-.62-.567l-.107.244q.27.266.567.512.23.198.479.386c1.321.694 2.696.513 3.69.495-.143-.025-.706-.11-1.056-.278z"></path><path fill="url(#logo_240424_svg__x)" d="M18.273 3.77s4.349.337 6.728 2.594l-1.14 2.41s-.62-1.633-1.499-2.533c0 0-1.248-1.726-4.09-2.473z"></path></g><defs><linearGradient id="logo_240424_svg__b" x1="14.688" x2="13.675" y1="0.008" y2="29.002" gradientUnits="userSpaceOnUse"><stop stop-color="#266DFF"></stop><stop offset="0.5" stop-color="#B656FF"></stop><stop offset="1" stop-color="#F78CB2"></stop></linearGradient><linearGradient id="logo_240424_svg__c" x1="25.074" x2="20.061" y1="17.981" y2="25.05" gradientUnits="userSpaceOnUse"><stop stop-color="#F6BAFF" stop-opacity="0"></stop><stop offset="0.38" stop-color="#F6BAFF"></stop><stop offset="0.61" stop-color="#F6BAFF"></stop><stop offset="1" stop-color="#F6BAFF" stop-opacity="0"></stop></linearGradient><linearGradient id="logo_240424_svg__d" x1="23.714" x2="18.27" y1="17.017" y2="23.567" gradientUnits="userSpaceOnUse"><stop offset="0.18" stop-color="#F6BAFF" stop-opacity="0"></stop><stop offset="0.38" stop-color="#F6BAFF"></stop><stop offset="0.61" stop-color="#F6BAFF"></stop><stop offset="0.816" stop-color="#F6BAFF" stop-opacity="0"></stop></linearGradient><linearGradient id="logo_240424_svg__e" x1="26.198" x2="21.186" y1="18.78" y2="25.847" gradientUnits="userSpaceOnUse"><stop stop-color="#F6BAFF" stop-opacity="0"></stop><stop offset="0.38" stop-color="#F6BAFF"></stop><stop offset="0.61" stop-color="#F6BAFF"></stop><stop offset="1" stop-color="#F6BAFF" stop-opacity="0"></stop></linearGradient><linearGradient id="logo_240424_svg__f" x1="23.974" x2="18.959" y1="17.201" y2="24.269" gradientUnits="userSpaceOnUse"><stop offset="0.15" stop-color="#F6BAFF" stop-opacity="0"></stop><stop offset="0.38" stop-color="#F6BAFF"></stop><stop offset="0.61" stop-color="#F6BAFF"></stop><stop offset="0.84" stop-color="#F6BAFF" stop-opacity="0"></stop></linearGradient><linearGradient id="logo_240424_svg__g" x1="25.634" x2="20.621" y1="18.379" y2="25.447" gradientUnits="userSpaceOnUse"><stop stop-color="#F6BAFF" stop-opacity="0"></stop><stop offset="0.38" stop-color="#F6BAFF"></stop><stop offset="0.61" stop-color="#F6BAFF"></stop><stop offset="1" stop-color="#F6BAFF" stop-opacity="0"></stop></linearGradient><linearGradient id="logo_240424_svg__h" x1="24.518" x2="19.503" y1="17.587" y2="24.655" gradientUnits="userSpaceOnUse"><stop offset="0.08" stop-color="#F6BAFF" stop-opacity="0"></stop><stop offset="0.38" stop-color="#F6BAFF"></stop><stop offset="0.61" stop-color="#F6BAFF"></stop><stop offset="0.93" stop-color="#F6BAFF" stop-opacity="0"></stop></linearGradient><linearGradient id="logo_240424_svg__i" x1="25.917" x2="20.904" y1="18.579" y2="25.648" gradientUnits="userSpaceOnUse"><stop stop-color="#F6BAFF" stop-opacity="0"></stop><stop offset="0.38" stop-color="#F6BAFF"></stop><stop offset="0.61" stop-color="#F6BAFF"></stop><stop offset="1" stop-color="#F6BAFF" stop-opacity="0"></stop></linearGradient><linearGradient id="logo_240424_svg__j" x1="25.353" x2="20.34" y1="18.18" y2="25.247" gradientUnits="userSpaceOnUse"><stop stop-color="#F6BAFF" stop-opacity="0"></stop><stop offset="0.38" stop-color="#F6BAFF"></stop><stop offset="0.61" stop-color="#F6BAFF"></stop><stop offset="1" stop-color="#F6BAFF" stop-opacity="0"></stop></linearGradient><linearGradient id="logo_240424_svg__k" x1="24.243" x2="19.229" y1="17.391" y2="24.46" gradientUnits="userSpaceOnUse"><stop offset="0.11" stop-color="#F6BAFF" stop-opacity="0"></stop><stop offset="0.38" stop-color="#F6BAFF"></stop><stop offset="0.61" stop-color="#F6BAFF"></stop><stop offset="0.88" stop-color="#F6BAFF" stop-opacity="0"></stop></linearGradient><linearGradient id="logo_240424_svg__l" x1="24.796" x2="19.783" y1="17.784" y2="24.853" gradientUnits="userSpaceOnUse"><stop stop-color="#F6BAFF" stop-opacity="0"></stop><stop offset="0.38" stop-color="#F6BAFF"></stop><stop offset="0.61" stop-color="#F6BAFF"></stop><stop offset="1" stop-color="#F6BAFF" stop-opacity="0"></stop></linearGradient><linearGradient id="logo_240424_svg__m" x1="3.771" x2="3.771" y1="19.578" y2="16.278" gradientUnits="userSpaceOnUse"><stop stop-color="#fff" stop-opacity="0"></stop><stop offset="0.44"></stop><stop offset="0.64"></stop><stop offset="1" stop-color="#fff" stop-opacity="0"></stop></linearGradient><linearGradient id="logo_240424_svg__n" x1="4.64" x2="4.64" y1="19.593" y2="16.43" gradientUnits="userSpaceOnUse"><stop stop-color="#fff" stop-opacity="0"></stop><stop offset="0.44"></stop><stop offset="0.64"></stop><stop offset="1" stop-color="#fff" stop-opacity="0"></stop></linearGradient><linearGradient id="logo_240424_svg__o" x1="3.354" x2="3.354" y1="19.57" y2="16.205" gradientUnits="userSpaceOnUse"><stop stop-color="#fff" stop-opacity="0"></stop><stop offset="0.44"></stop><stop offset="0.64"></stop><stop offset="1" stop-color="#fff" stop-opacity="0"></stop></linearGradient><linearGradient id="logo_240424_svg__p" x1="1.042" x2="1.042" y1="19.53" y2="15.801" gradientUnits="userSpaceOnUse"><stop stop-color="#fff" stop-opacity="0"></stop><stop offset="0.44"></stop><stop offset="0.64"></stop><stop offset="1" stop-color="#fff" stop-opacity="0"></stop></linearGradient><linearGradient id="logo_240424_svg__q" x1="1.409" x2="1.409" y1="19.537" y2="15.866" gradientUnits="userSpaceOnUse"><stop stop-color="#fff" stop-opacity="0"></stop><stop offset="0.44"></stop><stop offset="0.64"></stop><stop offset="1" stop-color="#fff" stop-opacity="0"></stop></linearGradient><linearGradient id="logo_240424_svg__r" x1="4.202" x2="4.202" y1="19.585" y2="16.355" gradientUnits="userSpaceOnUse"><stop stop-color="#fff" stop-opacity="0"></stop><stop offset="0.44"></stop><stop offset="0.64"></stop><stop offset="1" stop-color="#fff" stop-opacity="0"></stop></linearGradient><linearGradient id="logo_240424_svg__s" x1="1.782" x2="1.782" y1="19.544" y2="15.932" gradientUnits="userSpaceOnUse"><stop stop-color="#fff" stop-opacity="0"></stop><stop offset="0.44"></stop><stop offset="0.64"></stop><stop offset="1" stop-color="#fff" stop-opacity="0"></stop></linearGradient><linearGradient id="logo_240424_svg__t" x1="2.946" x2="2.946" y1="19.564" y2="16.136" gradientUnits="userSpaceOnUse"><stop stop-color="#fff" stop-opacity="0"></stop><stop offset="0.44"></stop><stop offset="0.64"></stop><stop offset="1" stop-color="#fff" stop-opacity="0"></stop></linearGradient><linearGradient id="logo_240424_svg__u" x1="2.165" x2="2.165" y1="19.55" y2="16" gradientUnits="userSpaceOnUse"><stop stop-color="#fff" stop-opacity="0"></stop><stop offset="0.44"></stop><stop offset="0.64"></stop><stop offset="1" stop-color="#fff" stop-opacity="0"></stop></linearGradient><linearGradient id="logo_240424_svg__v" x1="2.551" x2="2.551" y1="19.557" y2="16.068" gradientUnits="userSpaceOnUse"><stop stop-color="#fff" stop-opacity="0"></stop><stop offset="0.44"></stop><stop offset="0.64" stop-color="#630D8A"></stop><stop offset="1" stop-color="#fff" stop-opacity="0"></stop></linearGradient><linearGradient id="logo_240424_svg__w" x1="8.484" x2="5.112" y1="23.898" y2="22.585" gradientUnits="userSpaceOnUse"><stop stop-color="#BA388E"></stop><stop offset="0.1" stop-color="#BA388E" stop-opacity="0.95"></stop><stop offset="0.27" stop-color="#BA388E" stop-opacity="0.82"></stop><stop offset="0.49" stop-color="#BA388E" stop-opacity="0.6"></stop><stop offset="0.75" stop-color="#BA388E" stop-opacity="0.31"></stop><stop offset="1" stop-color="#BA388E" stop-opacity="0"></stop></linearGradient><linearGradient id="logo_240424_svg__x" x1="20.093" x2="24.133" y1="3.637" y2="7.319" gradientUnits="userSpaceOnUse"><stop stop-color="#2C00FD"></stop><stop offset="0.66" stop-color="#2C00FD" stop-opacity="0.33"></stop><stop offset="1" stop-color="#2C00FD" stop-opacity="0"></stop></linearGradient><clipPath id="logo_240424_svg__a"><path fill="#fff" d="M0 0h28v28H0z"></path></clipPath></defs></svg>